<svg xmlns="http://www.w3.org/2000/svg" viewBox="0 0 24 24"><g id="Layer_2" data-name="Layer 2"><g id="Layer_1-2" data-name="Layer 1"><g id="black"><g id="github"><path d="M12,0A12,12,0,1,0,24,12,12,12,0,0,0,12,0Zm2.34,19.37c-.38.07-.51-.16-.51-.36s0-1.07,0-2.08a1.83,1.83,0,0,0-.5-1.4c1.64-.19,3.37-.83,3.37-3.74a2.92,2.92,0,0,0-.76-2,2.76,2.76,0,0,0-.07-2s-.62-.21-2,.77a7,7,0,0,0-3.7,0c-1.41-1-2-.77-2-.77a2.76,2.76,0,0,0-.07,2,3,3,0,0,0-.76,2c0,2.9,1.72,3.55,3.36,3.74a1.68,1.68,0,0,0-.47,1A1.56,1.56,0,0,1,8,15.92a1.55,1.55,0,0,0-1.13-.78s-.72,0-.05.46a2,2,0,0,1,.82,1.1s.44,1.48,2.49,1c0,.63,0,1.11,0,1.29s-.13.43-.5.36a7.55,7.55,0,0,1-5-7.18A7.47,7.47,0,0,1,12,4.62a7.47,7.47,0,0,1,7.38,7.57A7.55,7.55,0,0,1,14.34,19.37Z" fill="#010101" fill-rule="evenodd"/></g></g></g></g></svg>