<svg xmlns="http://www.w3.org/2000/svg" viewBox="0 0 24 24"><g id="Layer_2" data-name="Layer 2"><g id="Layer_1-2" data-name="Layer 1"><g id="OUTLINE_copy_2" data-name="OUTLINE copy 2"><path d="M12,0A12,12,0,1,0,24,12,12,12,0,0,0,12,0ZM8.88,16.71H6.43V9.34H8.88ZM7.66,8.34h0a1.28,1.28,0,1,1,0-2.55,1.28,1.28,0,1,1,0,2.55Zm10.05,8.37H15.26V12.77c0-1-.35-1.67-1.24-1.67a1.33,1.33,0,0,0-1.25.9,1.56,1.56,0,0,0-.09.59v4.12H10.24s0-6.68,0-7.37h2.45v1.05a2.4,2.4,0,0,1,2.2-1.22c1.61,0,2.82,1.05,2.82,3.31Z" fill="#010101"/></g></g></g></svg>