<svg xmlns="http://www.w3.org/2000/svg" width="52.97" height="46.812" viewBox="0 0 52.97 46.812"><g transform="translate(-831.057 -138.408)"><rect width="16.841" height="5.634" rx="2.817" transform="translate(831.057 182.403) rotate(-59.999)" fill="#fffbff"/><path d="M1013.026,158.51l-1.627.939a1.878,1.878,0,0,1-2.565-.687L1002.5,147.8l-6.329,10.963a1.878,1.878,0,0,1-2.566.687l-1.626-.939a1.878,1.878,0,0,1-.687-2.566l9.582-16.6a1.878,1.878,0,0,1,3.253,0l9.583,16.6A1.878,1.878,0,0,1,1013.026,158.51Z" transform="translate(-144.963)" fill="#fffbff"/><rect width="5.634" height="16.842" rx="2.817" transform="translate(870.726 170.635) rotate(-30.001)" fill="#fffbff"/><path d="M975.946,380.932a1.878,1.878,0,0,1-.688,2.565l-3.253,1.878-10.7,6.176a1.878,1.878,0,0,1-1.878,0l-10.7-6.175-3.253-1.878a1.878,1.878,0,0,1-.687-2.565l.939-1.627a1.878,1.878,0,0,1,2.566-.688l3.253,1.878,7.879,4.549a1.878,1.878,0,0,0,1.878,0l7.879-4.549,3.254-1.878a1.878,1.878,0,0,1,2.566.688Z" transform="translate(-102.829 -217.424)" fill="#fffbff"/></g></svg>