<svg xmlns="http://www.w3.org/2000/svg" viewBox="0 0 24 24"><g id="Layer_2" data-name="Layer 2"><g id="Layer_1-2" data-name="Layer 1"><g id="Layer_2-2" data-name="Layer 2"><g id="Layer_1-2-2" data-name="Layer 1-2"><path d="M12,0A12,12,0,1,0,24,12,12,12,0,0,0,12,0Zm3.7,17.57a6.87,6.87,0,0,1-3.37.89h0a6.85,6.85,0,0,1-3.23-.81l-3.63.9L6.39,15a6.83,6.83,0,1,1,9.31,2.57Z" fill="#010202"/><path d="M14.78,15.08c-.79.37-2.44.18-4.18-1.31S8.42,10.69,8.66,9.85A1.42,1.42,0,0,1,10,8.9a3.82,3.82,0,0,1,1,1.64,7,7,0,0,1-.72.76s0,.61,1.09,1.56,1.71.84,1.71.84.5-.68.64-.83a3.8,3.8,0,0,1,1.77.7A1.42,1.42,0,0,1,14.78,15.08Z" fill="#010202"/></g></g></g></g></svg>